<?xml version="1.0" standalone="no"?>
<!DOCTYPE svg PUBLIC "-//W3C//DTD SVG 20010904//EN"
 "http://www.w3.org/TR/2001/REC-SVG-20010904/DTD/svg10.dtd">
<svg version="1.0" xmlns="http://www.w3.org/2000/svg"
 width="567.000000pt" height="201.000000pt" viewBox="0 0 567.000000 201.000000"
 preserveAspectRatio="xMidYMid meet">
<metadata>
Created by potrace 1.16, written by Peter Selinger 2001-2019
</metadata>
<g transform="translate(0.000000,201.000000) scale(0.100000,-0.100000)"
fill="#000000" stroke="none">
<path d="M875 1796 c-233 -57 -410 -243 -488 -514 -18 -66 -22 -102 -22 -247
0 -178 17 -315 42 -341 21 -20 568 -21 576 0 3 7 8 34 12 59 l7 45 -149 4
c-135 3 -153 5 -197 28 -67 35 -89 67 -94 140 -11 150 86 538 154 620 14 16
50 38 80 49 50 19 77 21 319 21 218 0 263 2 259 13 -8 23 -175 105 -245 122
-76 17 -184 18 -254 1z"/>
<path d="M5368 1738 c-2 -7 -3 -49 -3 -93 1 -67 3 -80 18 -83 15 -3 17 6 18
65 l1 68 17 -65 c13 -51 21 -65 36 -65 15 0 23 14 36 65 l17 65 1 -67 c1 -61
3 -68 21 -68 19 0 20 7 20 95 l0 95 -29 0 c-20 0 -31 -6 -35 -17 -3 -10 -10
-38 -17 -63 -13 -50 -18 -45 -39 38 -9 34 -15 42 -34 42 -13 0 -26 -6 -28 -12z"/>
<path d="M2025 1551 c-87 -41 -109 -130 -103 -410 6 -277 15 -287 238 -284
198 4 204 2 230 -53 19 -39 22 -58 18 -129 -5 -92 -21 -129 -66 -146 -16 -7
-80 -9 -162 -6 -104 3 -149 9 -195 26 -32 11 -61 21 -62 21 -8 0 11 -167 20
-178 8 -11 65 -13 276 -10 247 3 269 4 301 24 80 46 106 158 97 414 -7 198
-23 262 -76 297 -32 21 -44 23 -187 23 -91 0 -163 5 -177 11 -40 18 -51 52
-51 150 0 135 -5 133 230 130 141 -2 195 -6 216 -17 l28 -15 0 54 c0 30 -3 69
-6 86 l-6 31 -262 0 c-234 0 -265 -2 -301 -19z"/>
<path d="M2875 1552 c-92 -58 -95 -74 -95 -575 0 -445 3 -477 46 -535 48 -63
56 -64 357 -57 150 4 353 7 452 8 l180 2 5 440 c3 242 7 441 8 443 1 1 11 2
22 2 25 0 35 -23 174 -365 53 -132 101 -249 107 -260 5 -11 31 -74 57 -140
l48 -120 122 -3 122 -3 1 338 c2 441 6 660 13 689 4 13 14 27 24 31 9 5 90 7
180 5 l162 -3 0 -24 c0 -13 -38 -148 -84 -302 -46 -153 -112 -372 -146 -488
-33 -115 -63 -218 -66 -228 -5 -16 1 -18 63 -15 l68 3 -3 55 c-2 45 6 76 41
170 l44 115 171 3 170 2 11 -32 c5 -18 24 -97 42 -176 l33 -143 126 3 c105 3
124 5 122 18 -4 15 -75 258 -164 555 -28 94 -79 265 -113 380 l-63 210 -138 8
c-77 4 -240 6 -364 5 l-225 -3 5 -260 c3 -143 5 -341 5 -440 l0 -180 -24 0
c-20 0 -29 13 -63 90 -22 50 -45 106 -52 125 -24 64 -256 625 -264 640 -7 12
-37 16 -147 18 l-137 3 8 -38 c5 -21 9 -254 9 -518 l0 -480 -95 0 -95 0 -5
460 c-6 506 -3 486 -70 550 l-31 30 -262 3 c-242 2 -264 1 -292 -16z m433
-144 c15 -15 17 -844 2 -868 -7 -12 -38 -16 -148 -18 -119 -3 -142 -1 -156 13
-14 15 -16 60 -16 435 0 367 2 421 16 434 12 13 41 16 153 16 93 0 141 -4 149
-12z m1675 -125 c17 -53 59 -200 88 -308 33 -124 40 -116 -113 -113 -159 4
-154 -2 -109 139 16 52 46 147 66 212 20 64 40 117 45 117 4 0 15 -21 23 -47z"/>
<path d="M1204 1550 l-371 -5 -35 -24 c-43 -30 -53 -56 -108 -285 -49 -208
-51 -256 -11 -297 l29 -29 174 0 c238 0 241 -3 198 -189 -23 -98 -50 -136
-104 -146 -60 -12 -620 1 -645 14 -38 21 -51 7 -51 -53 0 -49 3 -56 23 -61 12
-3 200 -5 417 -3 374 3 397 4 429 23 69 41 86 75 140 289 57 222 63 291 31
344 -14 23 -27 32 -47 32 -16 1 -91 1 -168 1 -209 1 -229 15 -205 147 16 85
37 131 64 138 34 8 679 0 699 -10 15 -7 17 -2 17 58 l0 66 -52 -2 c-29 -2
-220 -5 -424 -8z"/>
<path d="M986 1319 c-3 -17 -6 -35 -6 -39 0 -5 73 -10 163 -12 159 -3 165 -4
205 -30 65 -44 77 -75 77 -203 0 -116 -13 -188 -67 -375 -36 -126 -56 -168
-104 -214 -64 -63 -106 -70 -383 -67 -195 2 -242 0 -239 -11 8 -24 129 -97
196 -118 145 -46 283 -34 429 37 60 29 96 56 158 118 44 44 95 106 114 138 43
73 87 201 102 297 15 101 6 333 -18 430 l-18 75 -301 3 -301 2 -7 -31z"/>
<path d="M2000 120 c0 -103 1 -110 20 -110 18 0 20 7 20 73 l1 72 45 -73 c36
-57 51 -72 70 -72 24 0 24 1 24 110 0 103 -1 110 -20 110 -18 0 -20 -7 -20
-77 l0 -78 -50 78 c-35 54 -56 77 -70 77 -19 0 -20 -6 -20 -110z"/>
<path d="M2230 121 c0 -104 1 -111 20 -111 18 0 20 7 20 73 l0 72 46 -73 c36
-57 51 -72 70 -72 24 0 24 0 24 110 0 103 -1 110 -20 110 -17 0 -19 -8 -22
-77 l-3 -77 -45 75 c-32 52 -52 75 -68 77 -22 3 -22 2 -22 -107z"/>
<path d="M2503 218 c-32 -16 -56 -73 -50 -120 10 -77 84 -117 154 -84 99 47
65 217 -44 215 -21 0 -48 -5 -60 -11z m80 -29 c31 -17 37 -28 37 -73 0 -47
-23 -76 -60 -76 -68 0 -91 116 -29 147 29 15 26 15 52 2z"/>
<path d="M2690 221 c0 -5 16 -55 36 -111 34 -94 39 -101 62 -98 21 3 29 16 63
108 21 58 39 106 39 108 0 2 -10 2 -22 0 -19 -2 -28 -17 -48 -75 -14 -39 -28
-74 -31 -77 -3 -3 -18 30 -33 74 -22 62 -33 80 -47 80 -11 0 -19 -4 -19 -9z"/>
<path d="M2953 213 c-3 -10 -21 -56 -39 -102 -19 -47 -34 -89 -34 -93 0 -19
38 -6 48 17 10 21 18 25 55 25 37 0 46 -4 55 -25 7 -15 20 -25 33 -25 11 0 19
4 17 9 -80 206 -83 211 -106 211 -13 0 -25 -8 -29 -17z"/>
<path d="M3380 120 c0 -103 1 -110 20 -110 18 0 20 7 20 73 l1 72 45 -73 c36
-57 51 -72 70 -72 24 0 24 1 24 110 0 103 -1 110 -20 110 -18 0 -20 -7 -20
-77 l0 -78 -50 78 c-35 54 -55 77 -70 77 -19 0 -20 -6 -20 -110z"/>
<path d="M3648 210 c-63 -49 -56 -158 12 -193 24 -12 47 -16 74 -12 65 10 76
20 76 70 l0 45 -45 0 c-33 0 -45 -4 -45 -15 0 -9 9 -15 25 -15 18 0 25 -5 25
-19 0 -35 -75 -44 -103 -13 -17 19 -23 88 -9 108 23 35 93 36 104 2 3 -9 10
-10 27 -3 23 10 23 11 4 34 -28 35 -108 41 -145 11z"/>
<path d="M4140 120 c0 -103 1 -110 20 -110 17 0 20 7 20 45 l0 45 50 0 50 0 0
-45 c0 -38 3 -45 20 -45 19 0 20 7 20 110 0 103 -1 110 -20 110 -17 0 -20 -7
-20 -45 l0 -45 -50 0 -50 0 0 45 c0 38 -3 45 -20 45 -19 0 -20 -7 -20 -110z"/>
<path d="M4370 120 l0 -110 85 0 c69 0 85 3 85 15 0 12 -14 15 -66 15 l-65 0
3 33 c3 31 4 32 56 35 37 2 52 7 52 18 0 10 -14 14 -55 14 -52 0 -55 1 -55 25
0 24 3 25 60 25 53 0 60 2 60 20 0 18 -7 20 -80 20 l-80 0 0 -110z"/>
<path d="M4670 120 l0 -110 74 0 c54 0 79 4 90 16 20 20 21 68 1 84 -11 9 -12
16 -4 26 6 7 9 25 7 41 -4 36 -38 53 -110 53 l-58 0 0 -110z"/>
<path d="M4900 120 l0 -110 85 0 c69 0 85 3 85 15 0 12 -14 15 -66 15 l-65 0
3 33 c3 31 4 32 56 35 37 2 52 7 52 18 0 10 -14 14 -55 14 -52 0 -55 1 -55 25
0 24 3 25 60 25 53 0 60 2 60 20 0 18 -7 20 -80 20 l-80 0 0 -110z"/>
<path d="M5132 214 c-27 -19 -29 -64 -4 -87 9 -8 36 -20 59 -26 48 -13 60 -26
43 -46 -18 -22 -67 -19 -82 5 -15 23 -48 27 -48 6 0 -26 35 -57 70 -62 46 -7
87 9 102 42 18 40 -6 74 -67 94 -53 18 -70 44 -36 55 21 6 61 -9 61 -24 0 -5
9 -7 20 -4 45 12 -2 63 -58 63 -21 0 -48 -7 -60 -16z"/>
</g>
</svg>
